<svg fill="#000000" xmlns="http://www.w3.org/2000/svg" viewBox="0 0 32 32" width="512px" height="512px"><path d="M10.084,16.681l-0.001-0.002l-0.002,0c-0.027,0.001-0.055,0.003-0.084,0.005c-0.091,0.005-0.193,0.011-0.311,0.015c-0.19,0.01-0.378,0.017-0.576,0.022c-0.224,0.005-0.501,0.008-0.823,0.008c-0.502-0.003-0.952-0.011-1.336-0.025c-0.394-0.014-0.711-0.022-0.969-0.025l-0.002,0L5.979,16.68c-0.022,0.019-0.039,0.062-0.053,0.137c-0.012,0.077-0.016,0.147-0.011,0.209c0.006,0.073,0.021,0.115,0.048,0.137l0.001,0.001l0.001,0c0.258,0.031,0.464,0.058,0.631,0.082c0.17,0.022,0.329,0.049,0.471,0.082c0.159,0.042,0.28,0.097,0.361,0.164c0.084,0.065,0.144,0.155,0.18,0.267c0.035,0.111,0.057,0.259,0.066,0.438c0.008,0.281,0.011,0.57,0.008,0.859c-0.003,0.288-0.017,0.564-0.041,0.82c-0.014,0.144-0.048,0.277-0.107,0.408c-0.055,0.127-0.14,0.221-0.254,0.281c-0.119,0.075-0.275,0.129-0.462,0.161c-0.186,0.035-0.401,0.052-0.639,0.052c-0.742-0.003-1.401-0.133-1.957-0.386c-0.556-0.25-1.028-0.606-1.403-1.061c-0.375-0.454-0.66-0.99-0.847-1.593c-0.187-0.6-0.282-1.265-0.282-1.977c0-0.676,0.078-1.297,0.233-1.845c0.158-0.56,0.388-1.027,0.704-1.428c0.313-0.397,0.712-0.708,1.186-0.923c0.474-0.214,1.037-0.323,1.675-0.326c0.365,0,0.674,0.017,0.943,0.052c0.273,0.036,0.518,0.088,0.726,0.156c0.206,0.067,0.397,0.152,0.567,0.252c0.157,0.089,0.285,0.207,0.391,0.361c0.105,0.151,0.189,0.358,0.252,0.613c0.067,0.263,0.122,0.599,0.162,0.998l0,0.002l0.002,0.001c0.033,0.022,0.087,0.033,0.17,0.036c0.09,0,0.164-0.007,0.231-0.022c0.075-0.013,0.124-0.035,0.148-0.065l0.001-0.001l0-0.001c0.006-0.204,0.018-0.418,0.036-0.636c0.021-0.262,0.044-0.498,0.069-0.721c0.034-0.276,0.063-0.498,0.093-0.697c0.032-0.215,0.065-0.404,0.099-0.562L9.378,11L9.373,11c-0.313-0.034-0.636-0.079-0.987-0.137c-0.301-0.052-0.636-0.101-1.054-0.154c-0.377-0.045-0.787-0.069-1.219-0.071c-0.64,0-1.226,0.051-1.74,0.151c-0.533,0.106-1.014,0.261-1.471,0.475c-0.598,0.271-1.12,0.636-1.549,1.087c-0.43,0.452-0.767,0.987-1,1.59c-0.23,0.606-0.349,1.28-0.351,2.002c0.003,1.156,0.227,2.148,0.667,2.949c0.221,0.402,0.5,0.76,0.828,1.065c0.328,0.305,0.714,0.566,1.149,0.775c0.868,0.416,1.957,0.629,3.237,0.631c0.359-0.003,0.726-0.028,1.09-0.074c0.389-0.053,0.729-0.111,1.04-0.178c0.325-0.068,0.618-0.137,0.873-0.206c0.278-0.076,0.459-0.127,0.587-0.167l0.002,0l0.001-0.001c0.012-0.022,0.023-0.057,0.031-0.103c0.01-0.044,0.016-0.091,0.021-0.136l0.001-0.008c0.003-0.056,0.002-0.085-0.003-0.103l-0.001-0.002l-0.002-0.001c-0.11-0.043-0.201-0.09-0.263-0.134c-0.055-0.039-0.094-0.088-0.114-0.141c-0.019-0.052-0.03-0.117-0.033-0.199c-0.008-0.082-0.014-0.2-0.016-0.348c-0.003-0.151-0.003-0.319-0.003-0.496c0.003-0.181,0.005-0.359,0.008-0.532c0.002-0.107,0.004-0.207,0.007-0.295c0.002-0.055,0.003-0.107,0.004-0.155c0.006-0.241,0.037-0.416,0.096-0.536c0.057-0.12,0.163-0.205,0.313-0.25c0.078-0.026,0.163-0.047,0.252-0.063c0.092-0.019,0.192-0.036,0.288-0.052l0.004-0.001l0.001-0.001c0.022-0.022,0.036-0.067,0.045-0.142c0.009-0.077,0.011-0.147,0.005-0.215C10.112,16.749,10.101,16.704,10.084,16.681z"/><path fill-rule="evenodd" d="M29.415 20.735c-.189-.022-.354-.041-.488-.058-.134-.016-.252-.036-.351-.055-.102-.019-.195-.041-.28-.069-.126-.03-.225-.08-.302-.143-.077-.063-.134-.154-.176-.269-.038-.118-.066-.272-.082-.461-.008-.145-.016-.379-.022-.702-.005-.324-.008-.711-.014-1.161-.003-.45-.005-.933-.008-1.454 0-.521-.003-1.048-.003-1.586-.003-.538-.003-1.056-.003-1.556 0-.499 0-.952 0-1.361 0-.027.008-.052.022-.08.016-.025.036-.044.06-.052.099-.005.236-.008.412-.011.176 0 .373-.003.593-.003.219 0 .442.001.667.003.228.001.553.001.748.007.156.005.285.047.39.121.104.074.187.193.252.357.042.105.081.236.115.39.035.157.063.324.088.508.025.184.044.373.06.568.014.016.047.027.096.036.049.008.107.012.167.011.063-.001.118-.006.167-.016.049-.011.082-.027.096-.047.022-.225.045-.469.071-.73.026-.26.056-.518.088-.779.031-.258.064-.5.102-.722.037-.22.077-.403.118-.551-.011-.019-.032-.037-.069-.055-.035-.018-.069-.027-.096-.027-.156.071-.307.123-.458.159-.148.035-.313.06-.494.071-.181.011-.395.016-.645.016l-6.205.004c-.304 0-.565-.025-.785-.069s-.401-.104-.549-.178c-.011-.005-.033-.005-.06.003-.03.005-.055.016-.08.027-.025.011-.038.025-.041.036-.008.181-.025.39-.047.626-.022.236-.049.483-.08.738-.033.255-.066.502-.102.735-.033.236-.069.442-.102.617.016.027.06.055.132.082.074.025.148.044.225.055.077.011.126.011.154-.005.077-.211.151-.412.225-.606.074-.192.145-.37.214-.527.069-.159.137-.294.203-.398.099-.162.203-.28.316-.348.112-.069.236-.107.376-.113.162-.005.346-.008.557-.011.211 0 .423-.003.634-.003.214 0 .403.003.571.003.167.003.288.005.362.011.027 0 .052.014.077.041.025.025.036.055.038.091 0 .551 0 1.119-.003 1.709 0 .59-.003 1.174-.005 1.756-.003.579-.008 1.13-.014 1.652-.006.524-.011.993-.016 1.407-.008.417-.016.754-.027 1.015-.003.252-.019.458-.052.623-.033.162-.093.288-.181.379-.088.091-.22.151-.392.184-.123.033-.285.063-.486.088-.198.027-.425.052-.683.077-.016.025-.027.071-.036.134-.008.066-.008.132-.005.198.005.066.019.115.041.145.214-.003.53-.011.947-.025.417-.014.93-.022 1.539-.025.337 0 .664.005.977.014.313.008.598.014.851.022.255.008.464.014.626.014.027-.014.049-.055.066-.121.014-.066.022-.132.025-.203C29.44 20.817 29.431 20.765 29.415 20.735L29.415 20.735zM21.395 14.197c-.136-.51-.341-.981-.615-1.418-.271-.435-.612-.817-1.022-1.144-.407-.327-.884-.582-1.427-.765-.546-.183-1.155-.277-1.834-.28-.429 0-.859.053-1.288.152-.427.1-.837.244-1.23.429-.393.186-.753.407-1.08.665-.33.26-.609.546-.839.864-.332.457-.587.953-.765 1.485-.175.535-.263 1.108-.266 1.723-.003.751.111 1.465.341 2.144.23.679.593 1.294 1.089 1.845.288.313.623.582 1.003.806.38.224.801.399 1.263.521.46.122.958.183 1.49.186.56 0 1.105-.083 1.643-.247.537-.163 1.039-.407 1.507-.731.468-.321.875-.723 1.222-1.199.227-.313.416-.645.565-.992.15-.349.263-.726.338-1.13.075-.404.111-.85.111-1.335C21.6 15.23 21.531 14.704 21.395 14.197zM14.88 20.188l-.009-.005c-.036-.021-.072-.043-.106-.065-.363-.237-.682-.53-.949-.871-.266-.343-.487-.722-.657-1.126-.171-.406-.3-.836-.383-1.275-.083-.439-.125-.883-.125-1.32 0-.567.064-1.108.191-1.608.126-.5.324-.954.588-1.348.264-.395.601-.716 1.002-.955.138-.077.285-.143.439-.197l.008-.003V20.188zM16.184 20.639l-.007-.001c-.163-.023-.321-.056-.471-.098-.188-.054-.372-.123-.546-.205l-.003-.002v-8.999l.004-.001c.244-.056.503-.085.77-.085.083 0 .166.002.246.007l.005 0V20.639zM17.438 20.632l-.005.001c-.189.034-.386.051-.586.051-.13 0-.258-.005-.381-.014l-.005 0v-9.389l.006.001c.227.029.448.078.655.145.106.033.211.072.312.114l.004.001V20.632zM19.894 17.824c-.092.467-.241.896-.444 1.276-.203.384-.479.721-.821 1.002-.218.185-.477.325-.791.43-.038.012-.077.024-.115.035l-.007.002v-8.897l.008.004c.134.071.265.151.39.239.322.225.609.503.854.827.236.315.437.673.596 1.065.154.383.272.796.349 1.228.075.418.114.862.114 1.322C20.03 16.867 19.985 17.36 19.894 17.824z" clip-rule="evenodd"/></svg>